<svg xmlns="http://www.w3.org/2000/svg" width="400" height="312" fill="none" viewBox="0 0 400 312"><path fill="#000" stroke="#fff" stroke-width="10" d="M273.997 9.737c30.169.409 58.118 8.099 80.933 30.1 22.301 21.504 35.631 58.755 35.708 89.061l-.007 1.968a157.42 157.42 0 0 1-43.699 107.383c3.958 8.455 5.322 17.959 2.94 26.407-2.805 9.95-10.621 17.708-23.499 20.166-11.92 2.276-19.841-3.01-27.032-8.346-3.58 2.132-7.761 4.191-10.901 5.635l-.001.001c-2.377 1.093-5.041 2.032-7.449 2.875-2.193.768-4.183 1.459-5.935 2.188l-.737.315c-26.587 11.712-53.499 16.542-82.52 14.779-5.501-.335-11.787-1.284-16.826-1.786h-.001c-4.196-.418-9.602-.693-14.296-1.331l-.012-.002-.013-.002a190.8 190.8 0 0 1-42.992-11.289l-.074-.029-.072-.031c-5.501-2.36-9.162-4.051-13.858-6.7-4.24 3.257-8.804 5.919-13.854 7.204-6.352 1.615-12.999.935-20.082-2.564-15.699-7.755-19.12-25.723-13.44-39.952-1.215-1.272-2.456-2.537-3.746-3.857-1.801-1.844-3.672-3.78-5.523-5.881l-.792-.911C4.112 186.02-4.903 106.371 36.894 53.33 52.958 32.945 71.269 24.28 95.106 18.4c15.115-3.73 28.538-6.534 45.151-4.215 22.037 2.268 40.456 8.313 57.99 21.726a76 76 0 0 1 1.707-1.21c2.078-1.432 3.344-2.22 4.805-3.246 20.223-14.204 44.957-20.387 68.894-21.709l.172-.01zm-71.956 204.309c-8.13 5.531-15.104 9.866-24.513 14.496a318 318 0 0 1-5.352 2.554 122.5 122.5 0 0 0 27.352 1.994c8.909-.585 19.349-1.912 28.777-4.14-5.306-2.445-10.589-5.022-15.883-7.927v-.001c-.881-.483-2.132-1.333-3.29-2.133-1.362-.942-2.55-1.784-4.024-2.799a96 96 0 0 0-3.067-2.044Zm-75.019-127.58c-5.661.162-12.311 1.678-18.585 4.285-6.326 2.628-11.908 6.213-15.61 10.22-10.358 11.208-13.571 26.008-11.864 41.363 1.712 15.401 8.357 30.924 17.082 42.752 2.027 2.748 4.656 5.55 7.32 8.183 1.714-1.021 3.386-1.946 4.655-2.725l.318-.195.344-.147c5.823-2.475 15.249-7.035 24.308-12.034 7.643-4.217 14.608-8.527 18.979-12.016-1.267-3.528-2.797-7.596-3.728-11.428-3.669-15.108-2.845-31.523 1.089-46.245l.334-1.209c1.335-4.684 3.191-9.622 4.806-14.054-8.604-4.66-19.315-6.692-29.448-6.75Zm164.043-.248c-7.117-3.228-14.685-4.666-21.086-3.814l-.124.017-.125.01c-11.039.91-18.612 3.65-27.153 9.545l1.027 2.169c.896 1.898 1.916 4.106 2.542 6.052l.121.386.001.004c6.996 23.409 5.912 41.439-1.151 63.466 4.646 3.94 11.646 7.971 19.466 11.872 9.281 4.629 18.166 8.365 25.383 11.832l.035.016.034.018c1.184.591 2.432 1.238 3.603 1.821q.321-.349.659-.743c.48-.561.953-1.149 1.483-1.807.514-.639 1.084-1.348 1.684-2.05 10.286-12.056 16.755-27.227 19.881-42.972l.144-.746c2.887-15.391.113-28.263-8.872-41.105l-.439-.622c-3.81-5.325-10.002-10.125-17.113-13.35Z"/><path fill="#000" d="M271.716 19.006c28.45.385 54.223 7.607 75.206 27.848 20.529 19.802 33.083 54.61 33.154 82.944.12 39.473-15.528 77.355-43.464 105.206 9.269 16.225 6.65 37.194-14.934 41.315-10.636 2.032-17.015-3.237-25.097-9.223-3.502 2.437-8.875 5.138-12.816 6.951-4.129 1.899-9.47 3.355-13.627 5.187-25.085 11.053-50.419 15.602-77.798 13.938-5.275-.321-10.81-1.188-16.136-1.718-4.493-.448-9.193-.659-13.695-1.271a180.2 180.2 0 0 1-40.611-10.668c-6.297-2.703-9.933-4.424-15.81-7.914-9.256 7.861-18.45 11.888-30.315 6.024-13.31-6.577-15.964-22.854-9.428-35.353-3.88-4.301-7.97-8.046-11.835-12.556C14.9 183.493 6.729 108.794 45.593 59.458c14.702-18.663 31.353-26.643 53.82-32.189 14.6-3.603 26.872-6.12 42.051-3.984 21.988 2.251 39.796 8.438 56.898 22.505 2.111-2.134 6.469-4.785 9.043-6.591 18.651-13.105 41.676-18.943 64.311-20.193m-164.13 179.389c2.508-1.775 5.08-3.067 7.671-4.66 11.65-4.953 37.172-18.001 45.75-26.296-1.496-4.579-3.422-9.057-4.559-13.742-3.339-13.751-2.612-28.847 1.029-42.476 1.606-6.013 4.186-12.324 6.2-18.164-9.86-6.619-22.787-9.244-34.511-9.3-12.4.326-28.288 6.54-36.688 15.633-22.507 24.365-13.108 63.615 4.72 87.795 2.939 3.985 6.947 7.945 10.388 11.21m133.678 29.331c-9.198-4.045-18.034-7.948-26.879-12.802-2.36-1.294-11.173-8.077-12.806-8.12-8.835 6.088-15.794 10.529-25.517 15.316-5.364 2.641-12.002 5.488-17.023 8.408a123.6 123.6 0 0 0 40.752 5.205c12.919-.843 29.475-3.281 41.473-8.007M235.27 92.335c1.368 3.442 4.025 8.226 4.966 11.365 6.767 22.647 5.412 39.66-2.047 61.632 9.893 10.17 33.902 19.651 46.982 25.938 1.914.957 4.601 2.389 6.518 3.17 2.635-1.889 4.432-4.583 6.544-7.056 10.623-12.454 17.196-27.988 20.355-43.905 3.333-16.811.271-31.027-9.706-44.98-8.577-11.992-26.986-20.593-41.638-18.641-13.022 1.072-21.67 4.683-31.974 12.477"/><path fill="#000" d="M268.931 29.115c27.342.358 52.111 7.053 72.276 25.818 19.729 18.359 31.794 50.629 31.862 76.897.115 36.596-14.923 71.716-41.771 97.537 8.908 15.042 6.392 34.482-14.351 38.304-10.222 1.883-16.352-3.002-24.12-8.551-3.365 2.259-8.529 4.763-12.316 6.444-3.968 1.76-9.101 3.11-13.096 4.808-24.108 10.248-48.455 14.466-74.767 12.922-5.07-.297-10.389-1.101-15.507-1.592-4.318-.415-8.835-.611-13.162-1.179a178.3 178.3 0 0 1-39.029-9.89c-6.051-2.506-9.546-4.101-15.194-7.337-8.895 7.288-17.73 11.021-29.134 5.585-12.791-6.098-15.342-21.188-9.06-32.776-3.728-3.988-7.66-7.459-11.374-11.641-38.067-42.853-45.92-112.106-8.57-157.846 14.13-17.302 30.132-24.7 51.724-29.842 14.03-3.34 25.825-5.674 40.412-3.694 21.131 2.088 38.246 7.823 54.681 20.865 2.029-1.979 6.217-4.436 8.691-6.111 17.924-12.15 40.052-17.562 61.805-18.72M111.196 195.427c2.41-1.646 4.882-2.844 7.373-4.321 11.195-4.591 35.723-16.688 43.967-24.379-1.438-4.245-3.289-8.396-4.382-12.739-3.209-12.749-2.51-26.745.989-39.38 1.543-5.575 4.023-11.426 5.959-16.84-9.476-6.136-21.899-8.57-33.166-8.623-11.918.303-27.187 6.065-35.259 14.494-21.63 22.589-12.598 58.978 4.537 81.395 2.823 3.694 6.675 7.365 9.982 10.393m128.47 27.193c-8.84-3.751-17.331-7.369-25.832-11.869-2.268-1.2-10.738-7.489-12.307-7.528-8.491 5.644-15.179 9.762-24.523 14.199-5.155 2.448-11.535 5.089-16.359 7.795a122.8 122.8 0 0 0 39.164 4.826c12.415-.782 28.326-3.042 39.857-7.423m-5.761-125.521c1.314 3.19 3.868 7.626 4.773 10.536 6.503 20.996 5.201 36.769-1.967 57.139 9.507 9.428 32.58 18.219 45.151 24.048 1.84.886 4.422 2.214 6.264 2.938 2.532-1.751 4.26-4.249 6.289-6.541 10.209-11.547 16.526-25.948 19.562-40.704 3.203-15.587.261-28.766-9.328-41.702-8.243-11.118-25.934-19.092-40.015-17.282-12.515.994-20.827 4.342-30.729 11.568"/><path fill="#d68a23" d="M257.795 27.58c10.581-2.184 20.38-1.812 31.001-.05 32.158 4.093 56.526 20.762 70.754 49.707 10.517 21.395 15.551 43.269 12.327 67.204-3.191 27.202-10.672 49.198-27.92 70.812-3.362 4.214-7.184 9.245-11.167 12.895-5.328-7.029-8.131-9.874-14.629-15.688l-1.752-1.497c-5.205-3.771-13.433-9.148-18.011-12.938 2.156-1.846 4.849-4.801 6.605-7.016 14.716-18.571 24.141-44.734 21.528-68.549a223 223 0 0 0-1.484-8.265c-.352-.744-.776-1.93-1.05-2.722-1.387-3.995-3.592-7.715-5.205-11.57l-.427-.51c-17.533-28.314-51.098-34.157-79.555-18.328-2.938 1.635-5.48 4.213-8.124 5.969-18.684 12.413-25.77 29.851-35.895 48.547-4.253 7.853-20.015 21.809-27.685 27.239-8.447-20.825-7.242-40.249 1.039-61.034l.571-1.549c.505-1.717 1.779-4.003 2.417-5.805 9.22-26.059 31.684-47.56 57.341-58.529 1.096-.53 2.648-1.105 3.809-1.574 6.663-2.372 18.37-6.054 25.512-6.75"/><path fill="#ca8228" d="M257.797 27.58c10.581-2.184 20.381-1.812 31.001-.05-4.924 1.777-10.717.755-15.816.906-5.771.172-9.553.816-15.185-.857"/><path fill="#dd9832" d="M228.477 35.903c1.096-.53 2.647-1.105 3.808-1.574l.058.789.214.044c.688.147.83.143 1.412.5l-.042.582c-1.151.72-3.478.39-4.797.147zM316.41 210.963c1.061-.617 1.691-1.101 2.916-1.125l.75.379c.114 1.443-.753 1.731-1.914 2.243zM168.715 100.237c.82 1.153 1.397 5.574.576 6.75l-.417-.161c-.253-1.52-.21-4.078-.729-5.04zM318.367 99.393c.281-1.576.016-1.411.938-2.463l.556.166c.465 1.306.352 2.232-1.067 2.808zM350.605 200.99c.973.965.766 1.957.653 3.193-.799-1.298-.78-1.793-.653-3.193"/><path fill="#d68a23" d="M117.226 30.824c9.165-1.744 18.283-.893 27.483.219 6.979.579 12.557 2.09 19.184 3.966l.745.216c6.985 1.863 22.641 10.262 27.844 15.244-10.438 10.481-17.637 18.096-24.215 31.829l-1.929 4.096c-2.321-1.618-3.616-2.317-6.154-3.602-13.423-6.527-35.348-8.384-49.559-2.97-20.234 7.707-30.766 19.333-36.845 39.933-.287 1.696-.765 5.124-1.169 6.659-.001.738-.172 1.875-.249 2.647-2.23 22.402 6.939 45.862 19.843 63.838 2.244 3.125 6.037 6.63 8.914 9.39-11.385 8.965-22.04 17.155-29.37 29.92-.541.945-1.276 1.974-1.88 2.902-8.808-6.817-23.182-27.464-27.867-37.543-13.54-29.131-19.784-65.894-9.34-96.839a53.5 53.5 0 0 1 3.258-8.779c3.968-11.291 10.539-22.176 18.182-31.177 13.553-15.96 29.335-22.44 49.241-26.96 4.835-1.099 8.633-2.606 13.883-2.99"/><path fill="#ca8228" d="M117.227 30.824c9.164-1.744 18.282-.893 27.482.219-5.234 2.048-21.368.287-27.482-.22"/><path fill="#dd9832" d="M160.184 82.793c1.369-1.233 6.373-1.081 8.082-.495l-1.928 4.096c-2.322-1.618-3.616-2.317-6.154-3.602M72.054 114.277c.878 2.366.746 3.479 1.086 5.872.178-.313.31-.42.325-.792l.317.398c-.287 1.696-.766 5.124-1.17 6.659-1.075-1.538-.599-9.665-.558-12.137M163.893 35.009l.745.216c-.826 2.31-6.269 1.05-8.349.714 2.678-.206 4.943-.53 7.604-.93M71.824 148.63c.6.939.702 4.418.83 5.83l.12-.821c.411 1.231.302 1.487.01 2.735-.112.601-.115.56-.472 1.063-.724-1.162-.501-7.243-.488-8.807"/><path fill="#d68a23" d="M214.402 114.331c3.32-6.055 10.003-12.754 15.004-17.556 5.661 8.994 8.681 27.013 8.332 37.487-.488 14.65-6.078 31.111-14.888 42.805-8.416 11.171-21.299 21.113-32.807 28.882-22.772 15.374-51.676 21.446-70.965 41.771-5.475 5.613-17.827 20.696-24.301 23.513-3.89 2.108-6.64 2.185-10.977 1.61-1.413-.241-2.69-.783-4.028-1.292q-.486-.224-.959-.48c-11.942-6.487-9.56-20.622-3.734-30.16 2.655-5.168 5.783-10.134 9.598-14.523 17.981-20.691 42.289-29.568 65.53-42.431 12.307-6.811 25.074-18.652 35.991-27.835 6.344-5.336 13.112-14.318 17.477-21.486 3.165-6.068 5.903-11.963 9.385-18.133z"/><path fill="#dd9832" d="M81.047 270.555c2.32-.392 10.156-.702 12.047.44-1.869.575-3.47 1.104-5.469.955-2.324-.317-4.378-.562-6.578-1.395"/><path fill="#ca8228" d="m93.095 270.995 1.682.238c-3.89 2.108-6.64 2.185-10.976 1.61 1.629-.825 2.015-.812 3.825-.893 1.999.149 3.6-.38 5.47-.955"/><path fill="#dd9832" d="M214.4 114.331c.699 1.68.589 3.063.104 4.79-.763-.672-.375-1.378-1.445-2.618z"/><path fill="#d68a23" d="M149.83 234.802c32.863 12.865 68.344 10.023 100.681-2.957 17.3 8.445 28.266 14.828 40.674 30.311-9.738 5.446-12.343 5.561-21.321 9.395-28.949 12.362-53.565 17.313-85.238 13.683l-5.148-.554c-3.408-.316-7.698-.427-10.97-.978-14.058-1.003-45.667-9.551-56.875-17.399 4.743-4.708 9.067-9.831 13.693-14.557 6.294-6.43 16.258-13.002 24.504-16.944"/><path fill="#ca8228" d="M168.508 283.702c4.208-.163 5.178-.588 9.677-.357l1.293 1.335c-3.408-.316-7.698-.427-10.97-.978"/><path fill="#ca8228" d="M178.184 283.345c2.343.001 4.871-.187 6.44 1.889l-5.148-.554z"/><path fill="#d68a23" d="M234.844 171.903c8.664 7.557 18.877 12.818 29.365 17.429 19.883 8.74 38.851 18.565 54.689 33.763 5.542 5.319 9.861 12.19 13.317 19.046 1.581 4.054 3.812 11.673 1.507 15.688-1.53 6.514-5.998 9.468-11.985 11.421-3.922.769-6.139.461-9.909-.391-9.777-4.238-18.519-15.832-26.139-23.232-18.916-18.373-44.535-23.671-66.681-36.62-3.621-2.118-7.701-4.46-10.82-7.28 11.102-7.773 19.785-18.269 26.656-29.824"/><path fill="#ca8228" d="M332.215 242.141c1.581 4.054 3.812 11.673 1.506 15.688l-.284-.126-.33.442c-.986-5.121-.152-10.486-.892-16.004M311.828 268.859c2.806-.58 7.449-1.253 9.909.391-3.921.769-6.139.461-9.909-.391"/></svg>