<svg xmlns="http://www.w3.org/2000/svg" width="322" height="359" fill="none" viewBox="0 0 322 359"><path fill="#010202" stroke="#fff" stroke-width="10" d="M55.495 20.137c4.039-.25 7.91-.188 12.203.865l.866.225.011.003a36.9 36.9 0 0 1 16.76 9.965h-.001c5.256 5.408 10.294 14.66 14.689 23.462 3.582 7.17 6.779 14.12 9.641 19.709 4.87-2.54 9.744-4.155 14.854-4.645 5.948-.57 11.869.418 18.088 2.785 2.459-1.693 5.36-3.744 9.387-5.158h.001c5.943-2.085 11.042-2.785 16.142-2.21 4.153.466 8.065 1.757 12.126 3.452 7.179-4.132 15.396-5.185 23.289-3.962 10.89 1.688 18.143 8.053 23.506 15.394 5.144 7.042 9.118 15.903 12.697 22.433l1.264 2.323c12.778 23.661 23.418 48.856 24.551 76.961l.048 1.384c.197 6.805.708 14.527-.056 22.161 5.513 3.003 9.44 7.628 12.467 12.395 3.054 4.808 5.545 10.394 7.715 14.933l.911 1.875.021.042.019.042c3.06 6.471 4.737 15.961 1.588 23.668-2.054 5.03-5.657 9.078-9.357 12.371-3.686 3.28-7.851 6.13-11.189 8.504a312.7 312.7 0 0 1-55.266 31.4l-.011.005-.01.004c-11.581 5.038-24.557 10.739-37.778 13.276l-.151.029-.154.02c-3.172.408-6.732.029-9.939-.762-3.203-.79-6.516-2.105-9.098-3.929v-.001c-7.742-5.469-11.669-15.248-14.382-21.888v-.001c-1.595-3.902-4.234-9.398-5.247-14.643v-.003c-.494-2.569-.495-5.362-.221-7.957-9.044-3.581-19.014-7.256-27.822-12.254l-.088-.05-.087-.054c-6.632-4.128-12.335-9.043-17.708-13.882-5.457-4.914-10.486-9.663-16.152-13.967v-.001c-2.908-2.208-6.713-4.17-11.19-6.097-4.507-1.941-9.267-3.674-14.273-5.636-4.885-1.915-9.891-4.008-14.34-6.521-4.436-2.505-8.617-5.591-11.627-9.641v-.001a31.3 31.3 0 0 1-5.822-23.728h.002c2.245-14.346 13.414-25.883 26.806-29.847 7.284-2.157 13.952-2.417 20.558-1.855a3073 3073 0 0 0-16.233-31.425l-.014-.025-.012-.025-10.649-20.9-.007-.013-.006-.013c-4.388-8.738-9.649-18.603-12.434-28.927l-.262-1c-2.85-11.249-1.415-22.598 4.013-31.622 5.474-9.1 14.833-15.52 27.066-17.016l.148-.018z"/><path fill="#01ab4f" d="M101.136 178.07c.138-6.856-7.262-19.04-10.651-25.739a4082 4082 0 0 0-24.288-47.621C59.958 92.631 53.443 80.514 48.47 67.864c-2.718-6.961-4.663-17.042 2.299-22.227 8.528-6.453 17.459.047 21.827 8.179 12.748 23.747 24.176 48.264 36.254 72.368 2.021 4.037 4.384 10.777 9.534 11.118a6.92 6.92 0 0 0 5.312-1.982c1.413-1.378 2.251-3.344 2.121-5.329-.455-6.814-12.519-21.911-12.168-27.367.165-2.55 2.088-4.813 3.99-6.368 3.004-2.451 7.31-3.885 11.186-3.47a10.9 10.9 0 0 1 6.446 2.969c4.695 4.445 8.933 17.442 13.676 23.298 6.209 4.49 12.203-.256 11.235-7.473-1.049-2.617-2.57-4.629-3.544-7.099l-.415-.451c-2.963-6.233-6.196-10.17 2.373-14.431 3.2-1.593 6.965-1.48 10.17-.3 10.394 3.07 10.218 27.861 22.889 23.26 4.041-1.468 4.716-6.531 2.926-10.121-1.75-3.51-4.432-7.881-5.661-11.557 2.589-2.438 4.919-3.384 8.59-3.31 10.218.206 13.237 12.626 17.802 19.763.684 1.069 2.347 4.139 2.78 5.251l2.772 5.359c3.581 6.59 8.784 16.429 11.327 23.438 1.022 2.12 3.374 8.158 3.895 10.468 2.828 7.491 5.102 21.663 5.443 29.835.7 4.051.527 26.615-.263 30.327l-.389 6.046c-1.99 2.122-7.667 6.243-10.215 8.12a214.4 214.4 0 0 1-62.157 32.308c-1.58.522-8.406 2.962-9.454 2.461-4.31-2.056-8.241-5.116-12.889-7.094-10.689-4.551-22.505-8.302-32.072-14.961-5.397-3.756-10.468-9.251-15.293-13.767a103 103 0 0 0-20.763-15.086c-7.247-3.965-14.302-6.558-21.963-9.546-5.542-2.162-12.304-3.585-15.85-8.563-1.607-2.615-1.519-4.999-.577-7.815 6.658-16.367 32.633-7.955 44.952-4.698 3.735.988 8.417 2.859 12.301 2.296 1.956-.283 3.232-2.092 4.238-3.643"/><path fill="#01ab4f" d="M241.418 211.666c-.102-.3-.089-.223-.289-.468-.175.787-.219 1.117-.534 1.816-.93-2.762-.711-36.165-.079-37 .848 2.192-.465 2.947 1.109 5.409.548 4.04.413 26.542-.207 30.243M39.735 183.785c1.109-.628 1.299-.779 2.583-.771l.65.31-.855.39c.22.475.048.292.584.504l-.726.515c.187 2.621 1.155 4.55.142 6.972-.808.445-.597.297-1.724.235-1.82-2.728-1.721-5.217-.654-8.155"/><path fill="#020115" d="M86.85 147.014c1.726.764 1.084 2.736.516 4-1.718-1.43-1.805-2.297-.516-4"/></svg>