<svg preserveAspectRatio="none" width="100%" height="100%" overflow="visible" style="display: block;" viewBox="0 0 103.861 92.7469" fill="none" xmlns="http://www.w3.org/2000/svg">
<g id="Frame 19">
<path id="Vector 1" opacity="0.8" d="M26.8881 27.7803L36.168 27.9764C39.2327 28.0411 41.999 29.8284 43.3175 32.5957L43.8569 33.7277C45.1755 36.495 47.9418 38.2823 51.0065 38.347L55.2875 38.4375C58.3522 38.5022 61.1185 40.2895 62.4371 43.0568L62.9764 44.1887C64.295 46.956 67.0613 48.7433 70.126 48.8081L74.7969 48.9068C77.6548 48.9671 80.2698 50.5277 81.6798 53.0143L83.4617 56.1567C84.7032 58.346 87.2878 59.3937 89.7034 58.6866C92.4233 57.8905 95.2977 59.3227 96.3001 61.9736L99.482 70.3881" stroke="var(--stroke-0, #33331D)" stroke-opacity="0.2" stroke-width="2.02737" stroke-linecap="round"/>
<path id="Vector 2" opacity="0.8" d="M23.0014 34.8953L32.2812 35.0914C35.3459 35.1561 38.1122 36.9434 39.4308 39.7107L39.9702 40.8427C41.2888 43.61 44.0551 45.3972 47.1198 45.462L51.4008 45.5525C54.4655 45.6172 57.2318 47.4045 58.5504 50.1718L59.0897 51.3037C60.4083 54.071 63.1746 55.8583 66.2393 55.9231L70.9102 56.0218C73.7681 56.0821 76.3831 57.6427 77.7931 60.1293L79.575 63.2717C80.8165 65.461 83.4011 66.5087 85.8166 65.8016C88.5366 65.0055 91.411 66.4377 92.4134 69.0886L95.5953 77.5031" stroke="var(--stroke-0, #33331D)" stroke-opacity="0.2" stroke-width="2.02737" stroke-linecap="round"/>
<path id="Vector 3" opacity="0.8" d="M19.1069 42.0102L28.3867 42.2063C31.4514 42.2711 34.2177 44.0584 35.5363 46.8257L36.0757 47.9576C37.3943 50.7249 40.1605 52.5122 43.2252 52.5769L47.5062 52.6674C50.571 52.7321 53.3372 54.5194 54.6558 57.2867L55.1952 58.4187C56.5138 61.186 59.2801 62.9732 62.3448 63.038L67.0156 63.1367C69.8735 63.1971 72.4886 64.7576 73.8986 67.2442L75.6805 70.3866C76.922 72.576 79.5066 73.6236 81.9221 72.9165C84.6421 72.1204 87.5164 73.5526 88.5189 76.2035L91.7008 84.618" stroke="var(--stroke-0, #33331D)" stroke-opacity="0.2" stroke-width="2.02737" stroke-linecap="round"/>
<path id="Vector 4" opacity="0.8" d="M15.2163 49.1251L24.4961 49.3212C27.5608 49.3859 30.3271 51.1732 31.6457 53.9405L32.185 55.0725C33.5036 57.8398 36.2699 59.627 39.3346 59.6918L43.6156 59.7823C46.6803 59.847 49.4466 61.6343 50.7652 64.4016L51.3046 65.5335C52.6232 68.3008 55.3894 70.0881 58.4542 70.1529L63.125 70.2516C65.9829 70.3119 68.5979 71.8725 70.008 74.3591L71.7899 77.5015C73.0314 79.6908 75.6159 80.7385 78.0315 80.0314C80.7514 79.2353 83.6258 80.6675 84.6282 83.3183L87.8102 91.7329" stroke="var(--stroke-0, #33331D)" stroke-opacity="0.2" stroke-width="2.02737" stroke-linecap="round"/>
<circle id="Ellipse 2" cx="39" cy="39" r="38.5" stroke="var(--stroke-0, #33331D)" stroke-opacity="0.1"/>
</g>
</svg>
